Coordinates
version=1
nRows=60
nColumns=12
inDegrees=yes

Units are S.I. units (second, meters, Newtons, ...)
Angles are in degrees

endheader
time	SC_y	SC_z	SC_x	AC_y	AC_z	AC_x	GH_y	GH_z	GH_yy	EL_x	PS_y
       0.0               -45.8         -1.166           21.8          64.69          3.495          5.802         -38.08          73.25          -10.7          41.89           48.7
   0.01973               -45.8         -1.165          21.81          64.69          3.494          5.803          -38.1          73.24         -10.69           41.9           48.7
   0.03947               -45.8         -1.164          21.82          64.68          3.493          5.804         -38.11          73.24         -10.68           41.9          48.69
    0.0592              -45.79         -1.164          21.83          64.68          3.492          5.805         -38.13          73.23         -10.67          41.91          48.69
   0.07893              -45.79         -1.163          21.84          64.68          3.491          5.806         -38.15          73.22         -10.66          41.92          48.68
   0.09866              -45.79         -1.162          21.85          64.67           3.49          5.807         -38.16          73.22         -10.64          41.92          48.68
    0.1184              -45.78         -1.161          21.86          64.67          3.489          5.808         -38.18          73.21         -10.63          41.93          48.67
    0.1381              -45.78          -1.16          21.87          64.67          3.488          5.809          -38.2           73.2         -10.61          41.94          48.67
    0.1579              -45.77         -1.159          21.89          64.66          3.486          5.811         -38.23          73.19          -10.6          41.95          48.66
    0.1776              -45.77         -1.158           21.9          64.66          3.485          5.812         -38.25          73.18         -10.58          41.96          48.66
    0.1973              -45.76         -1.157          21.92          64.65          3.483          5.814         -38.28          73.17         -10.56          41.96          48.65
    0.2171              -45.76         -1.156          21.94          64.65          3.481          5.816          -38.3          73.16         -10.54          41.97          48.64
    0.2368              -45.75         -1.154          21.95          64.64          3.479          5.817         -38.33          73.15         -10.52          41.99          48.63
    0.2565              -45.75         -1.153          21.97          64.63          3.477           5.82         -38.37          73.13          -10.5           42.0          48.63
    0.2763              -45.74         -1.151           22.0          64.63          3.475          5.822          -38.4          73.12         -10.47          42.01          48.62
     0.296              -45.73          -1.15          22.02          64.62          3.473          5.824         -38.44          73.11         -10.44          42.02          48.61
    0.3157              -45.72         -1.148          22.05          64.61           3.47          5.827         -38.48          73.09         -10.41          42.04          48.59
    0.3355              -45.72         -1.146          22.07           64.6          3.467           5.83         -38.52          73.07         -10.38          42.05          48.58
    0.3552              -45.71         -1.143           22.1          64.59          3.464          5.833         -38.57          73.05         -10.34          42.07          48.57
    0.3749               -45.7         -1.141          22.14          64.58          3.461          5.836         -38.62          73.03          -10.3          42.09          48.56
    0.3947              -45.68         -1.138          22.18          64.57          3.457           5.84         -38.68          73.01         -10.26          42.11          48.54
    0.4144              -45.67         -1.135          22.22          64.55          3.453          5.844         -38.75          72.98         -10.21          42.14          48.52
    0.4341              -45.66         -1.132          22.26          64.54          3.448          5.848         -38.82          72.95         -10.16          42.16           48.5
    0.4539              -45.64         -1.129          22.31          64.52          3.443          5.853          -38.9          72.92          -10.1          42.19          48.48
    0.4736              -45.62         -1.125          22.37          64.51          3.438          5.859         -38.98          72.88         -10.04          42.22          48.46
    0.4933              -45.61          -1.12          22.43          64.49          3.432          5.865         -39.08          72.84         -9.967          42.26          48.43
    0.5131              -45.58         -1.115           22.5          64.46          3.425          5.872         -39.19           72.8         -9.886           42.3           48.4
    0.5328              -45.56          -1.11          22.57          64.44          3.417           5.88         -39.31          72.75         -9.795          42.35          48.37
    0.5525              -45.53         -1.103          22.66          64.41          3.408          5.888         -39.45          72.69         -9.693           42.4          48.33
    0.5723               -45.5         -1.096          22.76          64.38          3.398          5.898         -39.61          72.63         -9.576          42.45          48.29
     0.592              -45.47         -1.088          22.88          64.34          3.386           5.91         -39.79          72.56         -9.443          42.52          48.24
    0.6117              -45.42         -1.078          23.01           64.3          3.373          5.923         -39.99          72.47         -9.291           42.6          48.19
    0.6315              -45.38         -1.068          23.16          64.25          3.358          5.938         -40.23          72.38         -9.115          42.68          48.13
    0.6512              -45.32         -1.055          23.33          64.19           3.34          5.956         -40.51          72.27          -8.91          42.79          48.05
    0.6709              -45.26          -1.04          23.54          64.13          3.319          5.976         -40.83          72.13         -8.671           42.9          47.97
    0.6907              -45.18         -1.023          23.78          64.05          3.295          6.001         -41.21          71.98         -8.389          43.04          47.86
    0.7104              -45.09         -1.002          24.07          63.95          3.266          6.029         -41.67           71.8         -8.053          43.21          47.74
    0.7301              -44.99         -0.977          24.41          63.84          3.231          6.064         -42.21          71.58         -7.651          43.41           47.6
    0.7498              -44.86         -0.947          24.83          63.71          3.189          6.106         -42.87          71.31         -7.165          43.65          47.42
    0.7696               -44.7        -0.9103          25.33          63.54          3.138          6.157         -43.67          70.98          -6.57          43.95          47.21
    0.7893               -44.5        -0.8649          25.96          63.34          3.074           6.22         -44.66          70.58         -5.837          44.31          46.94
     0.809              -44.26        -0.8084          26.75          63.08          2.995          6.298          -45.9          70.08         -4.923          44.77          46.61
    0.8288              -43.95        -0.7372          27.73          62.76          2.895          6.397         -47.46          69.45         -3.771          45.34          46.19
    0.8485              -43.56        -0.6467          28.98          62.36          2.769          6.523         -49.44          68.65         -2.306          46.07          45.66
    0.8682              -43.06        -0.5309          30.59          61.84          2.606          6.684         -51.97          67.62        -0.4318           47.0          44.99
     0.888              -42.41        -0.3822          32.65          61.17          2.398           6.89         -55.22          66.31          1.974          48.19          44.12
    0.9077              -41.59        -0.1923          35.28          60.31          2.132          7.154         -59.38          64.62          5.046          49.72          43.01
    0.9274              -40.56        0.04644          38.59          59.24          1.798          7.486          -64.6          62.51           8.91          51.64          41.61
    0.9472               -39.3         0.3374          42.62          57.93           1.39           7.89         -70.97          59.93          13.62          53.98          39.91
    0.9669              -37.84         0.6747          47.29          56.41         0.9181          8.359         -78.34          56.94          19.07          56.69          37.93
    0.9866              -36.26           1.04          52.34          54.77         0.4067          8.867         -86.33          53.71          24.98          59.63           35.8
     1.006              -34.69          1.405           57.4          53.13        -0.1047          9.374         -94.32          50.47          30.89          62.57          33.66
     1.026              -33.23          1.742          62.07          51.61         -0.577          9.843         -101.7          47.48          36.35          65.28          31.69
     1.046              -31.97          2.033           66.1           50.3        -0.9844          10.25         -108.1           44.9          41.06          67.62          29.99
     1.066              -30.94          2.272          69.41          49.23         -1.319          10.58         -113.3          42.79          44.92          69.54          28.59
     1.085              -30.11          2.462          72.04          48.37         -1.585          10.84         -117.4          41.11          47.99          71.06          27.48
     1.105              -29.47          2.611           74.1          47.71         -1.793          11.05         -120.7          39.79           50.4          72.26          26.61
     1.125              -28.97          2.726           75.7          47.18         -1.955          11.21         -123.2          38.76          52.27          73.19          25.93
     1.145              -28.58          2.817          76.96          46.78         -2.082          11.34         -125.2          37.96          53.74          73.92           25.4
     1.164              -28.27          2.888          77.94          46.46         -2.182          11.44         -126.8          37.33          54.89          74.49          24.99
